<?xml version="1.0" standalone="no"?>
<!DOCTYPE svg PUBLIC "-//W3C//DTD SVG 20010904//EN"
 "http://www.w3.org/TR/2001/REC-SVG-20010904/DTD/svg10.dtd">
<svg version="1.0" xmlns="http://www.w3.org/2000/svg"
 width="700.000000pt" height="700.000000pt" viewBox="0 0 700.000000 700.000000"
 preserveAspectRatio="xMidYMid meet">
<metadata>
Created by potrace 1.14, written by Peter Selinger 2001-2017
</metadata>
<g transform="translate(0.000000,700.000000) scale(0.100000,-0.100000)"
fill="#000000" stroke="none">
<path d="M2232 6567 c-129 -16 -264 -82 -363 -179 -60 -58 -149 -185 -149
-212 0 -8 -4 -17 -9 -20 -5 -3 -17 -38 -27 -78 -18 -70 -19 -147 -19 -1703 0
-1510 1 -1635 17 -1692 66 -239 248 -418 488 -482 74 -20 104 -20 1710 -18
1629 2 1635 2 1696 23 111 38 204 95 278 169 108 107 171 230 194 380 4 28 7
770 7 1650 -1 1472 -3 1605 -18 1662 -67 243 -238 419 -472 484 l-80 23 -1595
0 c-877 1 -1623 -2 -1658 -7z m3331 -179 c148 -60 246 -159 308 -313 l24 -60
3 -1595 c2 -1128 0 -1614 -8 -1660 -24 -142 -131 -291 -257 -358 -125 -66 -17
-62 -1775 -62 -1758 0 -1646 -4 -1772 63 -77 40 -162 125 -203 203 -67 125
-63 14 -63 1774 0 1701 -2 1630 48 1743 47 106 151 208 260 254 95 41 84 41
1757 39 l1610 -1 68 -27z"/>
<path d="M2070 5659 c0 -183 1 -199 18 -200 9 0 98 -1 197 -2 l180 0 3 200 2
201 -200 -1 -200 0 0 -198z"/>
<path d="M5279 5846 c-1 -6 -3 -95 -3 -198 -2 -163 0 -188 14 -189 105 -6 373
-2 379 6 5 8 7 322 2 381 -1 16 -390 16 -392 0z"/>
<path d="M3285 5231 c-52 -22 -50 18 -51 -865 -1 -664 2 -826 12 -848 12 -23
37 -39 69 -43 12 -2 78 33 150 80 53 34 860 530 944 580 28 17 83 50 123 75
40 25 77 47 83 49 25 10 75 55 80 72 12 36 -5 73 -43 98 -161 106 -1311 805
-1327 807 -11 2 -29 0 -40 -5z m238 -292 c48 -30 95 -58 105 -64 10 -5 179
-109 375 -230 196 -121 372 -229 391 -240 87 -52 108 -30 -217 -229 -160 -98
-397 -244 -526 -324 -129 -79 -241 -146 -248 -149 -11 -4 -13 113 -13 657 l0
662 23 -14 c12 -8 61 -39 110 -69z"/>
<path d="M2074 5011 c-2 -2 -4 -93 -4 -201 l0 -196 200 0 200 0 0 201 0 200
-196 0 c-108 0 -198 -2 -200 -4z"/>
<path d="M5281 5010 c-4 -3 -7 -93 -7 -200 l1 -195 200 0 200 0 0 193 c0 119
-4 196 -10 200 -12 8 -373 10 -384 2z"/>
<path d="M2070 3970 l0 -200 200 0 200 0 0 200 0 200 -200 0 -200 0 0 -200z"/>
<path d="M5274 3970 l0 -200 200 2 201 3 0 195 0 195 -201 3 -200 2 0 -200z"/>
<path d="M2070 3130 l0 -200 68 -1 c101 0 305 0 320 0 9 1 12 48 12 200 l0
199 -200 1 -200 1 0 -200z"/>
<path d="M5279 3317 c-5 -37 -4 -387 1 -388 47 -7 391 -2 393 6 2 6 3 96 2
200 l-1 190 -197 2 c-151 2 -197 0 -198 -10z"/>
<path d="M1315 4695 c-93 -23 -285 -70 -425 -104 -268 -66 -350 -96 -445 -167
-156 -117 -261 -319 -269 -515 -4 -103 12 -183 130 -654 14 -55 27 -109 29
-120 4 -19 17 -75 20 -85 10 -36 23 -87 66 -265 28 -115 52 -217 54 -225 2 -8
20 -82 40 -165 106 -437 164 -673 241 -990 47 -192 88 -359 90 -369 54 -269
298 -497 574 -534 101 -14 198 -5 350 33 96 24 398 98 409 100 16 4 340 82
641 156 667 164 1480 361 1504 365 70 13 187 59 251 99 216 134 339 371 321
620 -3 49 -10 104 -14 120 -8 30 -9 30 -83 31 -41 0 -77 -1 -80 -3 -3 -1 0
-26 8 -55 14 -53 19 -181 9 -227 -11 -50 -39 -123 -64 -169 -37 -68 -147 -172
-217 -206 -36 -17 -164 -55 -320 -93 -143 -35 -271 -66 -285 -70 -14 -3 -29
-7 -35 -8 -13 -3 -449 -109 -580 -141 -55 -14 -107 -27 -115 -29 -8 -1 -118
-28 -245 -59 -198 -49 -821 -201 -865 -211 -8 -2 -89 -21 -180 -43 -277 -67
-309 -71 -433 -47 -178 34 -351 204 -393 385 -4 19 -9 40 -10 45 -1 6 -29 120
-63 255 -70 285 -159 651 -202 830 -17 69 -62 253 -100 410 -39 157 -73 296
-75 309 -3 13 -25 105 -50 205 -24 99 -46 190 -48 201 -3 11 -31 124 -62 250
-51 202 -58 242 -58 325 0 147 40 247 139 358 85 95 189 142 435 197 41 9 530
127 561 135 l36 10 -2 72 c-3 88 -3 88 -12 87 -5 0 -84 -20 -178 -44z"/>
</g>
</svg>
