<svg xmlns="http://www.w3.org/2000/svg" xmlns:xlink="http://www.w3.org/1999/xlink"
  viewBox="0 0 100 100" data-background-color="#ffffff" height="50" width="60">
  <g transform="translate(-10 5), scale(1)" height="75" width="75">
    <rect x="34.571" y="16.321" fill="#0db0b9" width="5.716" height="5.716"
      data-fill-palette-color="accent" />
    <rect x="34.571" y="28.368" fill="#0db0b9" width="5.716" height="5.716"
      data-fill-palette-color="accent" />
    <rect x="34.571" y="40.416" fill="#0db0b9" width="5.716" height="5.716"
      data-fill-palette-color="accent" />
    <rect x="34.571" y="52.464" fill="#0db0b9" width="5.716" height="5.716"
      data-fill-palette-color="accent" />
    <rect x="80.349" y="16.321" fill="#0db0b9" width="5.716" height="5.716"
      data-fill-palette-color="accent" />
    <rect x="80.349" y="28.368" fill="#0db0b9" width="5.716" height="5.716"
      data-fill-palette-color="accent" />
    <rect x="80.349" y="40.416" fill="#0db0b9" width="5.716" height="5.716"
      data-fill-palette-color="accent" />
    <rect x="80.349" y="52.464" fill="#0db0b9" width="5.716" height="5.716"
      data-fill-palette-color="accent" />

    <path fill="#0db0b9"
      d="M52.324 50.356c-0.188 0-0.375-0.048-0.546-0.142-0.354-0.199-0.572-0.572-0.572-0.975V26.271c0-0.404 0.218-0.777 0.572-0.975 0.354-0.194 0.786-0.19 1.13 0.024l18.704 11.483c0.332 0.203 0.532 0.563 0.532 0.951 0 0.389-0.201 0.749-0.532 0.951L52.909 50.19C52.73 50.301 52.527 50.356 52.324 50.356zM53.442 28.268v18.974l15.45-9.488L53.442 28.268z"
      data-fill-palette-color="accent" />

    <path fill="#0db0b9"
      d="M81.978 8.301c4.025 0 7.3 3.275 7.3 7.3V59.3c0 4.025-3.275 7.3-7.3 7.3H38.279c-4.025 0-7.3-3.275-7.3-7.3V15.601c0-4.025 3.275-7.3 7.3-7.3H81.978M81.978 6.066H38.279c-5.266 0-9.535 4.269-9.535 9.535V59.3c0 5.266 4.269 9.535 9.535 9.535h43.699c5.266 0 9.535-4.269 9.535-9.535V15.601C91.512 10.335 87.243 6.066 81.978 6.066L81.978 6.066z"
      data-fill-palette-color="accent" />

    <path fill="#0db0b9"
      d="M74.63 71.069h-2.299l0.225 0.924c0.478 1.957 0.164 3.985-0.884 5.706-1.048 1.722-2.704 2.931-4.661 3.409l-38.573 9.386c-1.953 0.474-3.98 0.164-5.706-0.886-1.722-1.047-2.931-2.704-3.409-4.661l-9.383-38.57c-0.478-1.957-0.161-3.985 0.886-5.706 1.047-1.722 2.704-2.931 4.661-3.409l11.023-2.682V32.28l-11.551 2.809c-2.538 0.618-4.683 2.187-6.043 4.419-1.357 2.23-1.765 4.858-1.148 7.396l9.386 38.57c0.615 2.538 2.184 4.683 4.417 6.043 1.552 0.943 3.293 1.429 5.065 1.429 0.775 0 1.558-0.094 2.331-0.284l38.573-9.386c2.538-0.615 4.683-2.184 6.04-4.417 1.36-2.23 1.765-4.858 1.148-7.396L74.63 71.069z"
      data-fill-palette-color="accent" />
  </g>
</svg>