<svg xmlns="http://www.w3.org/2000/svg" xmlns:xlink="http://www.w3.org/1999/xlink"
  viewBox="0 0 100 100" data-background-color="#ffffff" height="50" width="252">

  <g transform="translate(-200 70), scale(1.5)">
    <path
      d="M26.4-12.55L26.4-12.55Q31.25-12.4 31.53-12.4 31.8-12.4 31.85-12.4L31.85-12.4Q33.05-12.5 33.05-12.05L33.05-12.05Q33.05-11.35 31.1-11.35L31.1-11.35 26.85-11.45Q25.55-11.35 25.3-11.2L25.3-11.2Q23.2-8.6 19.65-3.68 16.1 1.25 16.1 2.2L16.1 2.2Q16.1 2.6 17 2L17 2Q17.55 2 17.55 2.15L17.55 2.15Q17.55 2.4 16.45 2.9L16.45 2.9 15.05 3.65Q14.1 4.45 12.88 4.45 11.65 4.45 11.75 3.85L11.75 3.85Q11.8 2.65 15.3-2.23 18.8-7.1 22.55-11.5L22.55-11.5Q18.95-10.85 17.05-10.85L17.05-10.85Q16.85-10.9 16.85-11.18 16.85-11.45 17.45-11.95 18.05-12.45 18.73-12.45 19.4-12.45 20.9-12.5L20.9-12.5 23.45-12.5Q25.15-14.8 31-23.1L31-23.1Q33.4-26.55 33.4-28.8L33.4-28.8Q33.4-32.3 28.2-32.3L28.2-32.3Q24.15-32.3 18.68-30.05 13.2-27.8 8.6-23.9L8.6-23.9Q5.35-21.2 3.45-18.05 1.55-14.9 1.55-12.45L1.55-12.45Q1.55-8.5 6.25-8.5L6.25-8.5Q6.65-8.5 7.1-8.55L7.1-8.55Q10.15-8.8 12.88-12.03 15.6-15.25 15.6-17.45L15.6-17.45Q15.6-17.65 15.55-17.9L15.55-17.9Q16.85-17.65 16.85-16.35L16.85-16.35Q16.85-14.2 14.05-11.3L14.05-11.3Q10.25-7.35 5.25-7.35L5.25-7.35Q2.5-7.35 0.95-8.8-0.6-10.25-0.6-12.75L-0.6-12.75Q-0.6-18.65 6.6-24.65L6.6-24.65Q11.8-28.9 17.65-31.08 23.5-33.25 27.83-33.25 32.15-33.25 34.27-32 36.4-30.75 36.4-28.53 36.4-26.3 34.45-23.5L34.45-23.5Q33.3-21.65 26.4-12.55ZM48.2-14.95L48.2-14.95 48.9-15.1Q49.45-15.1 49.95-14.65 50.45-14.2 50.45-13.95 50.45-13.7 47.35-9.13 44.25-4.55 44.25-2.75L44.25-2.75Q44.25-2.6 44.3-2.45L44.3-2.45Q44.55-1.3 45.4-1.3L45.4-1.3Q48-1.3 54.9-9.9L54.9-9.9Q55.05-10.1 55.25-10.1 55.45-10.1 55.45-9.73 55.45-9.35 55-8.75L55-8.75Q48.6-0.2 45.25-0.2L45.25-0.2Q44.8-0.2 44.4-0.35L44.4-0.35Q42.2-1.2 42.2-3.65L42.2-3.65Q42.2-4.5 42.4-5.35L42.4-5.35 39.3-2.35Q36.35 0.25 35.02 0.25 33.7 0.25 32.5-0.6L32.5-0.6Q31.15-1.6 31.15-3.25L31.15-3.25Q31.15-6.9 36.25-11.98 41.35-17.05 45.6-17.05L45.6-17.05Q47.25-17.05 47.8-15.9L47.8-15.9Q47.95-15.5 48.05-15.23 48.15-14.95 48.2-14.95ZM33.25-2.65L33.25-2.65Q33.25-0.85 34.5-0.85L34.5-0.85Q37.4-0.85 42.4-7.2L42.4-7.2 47.7-14.5Q47.3-15.2 46.4-15.2L46.4-15.2Q43.35-15.2 38.3-10.48 33.25-5.75 33.25-2.65ZM65.75-19.65L65.75-19.65Q67.25-19.65 68.3-18.65 69.35-17.65 69.35-15.85L69.35-15.85Q69.35-11.9 62.8-5.95L62.8-5.95Q57.25-0.95 53.85 0.15L53.85 0.15Q53.3 0.15 52.4-0.45 51.5-1.05 51.5-1.55L51.5-1.55Q51.5-2.65 53.9-9 56.3-15.35 57.2-16.1L57.2-16.1Q57.4-16.3 57.85-16.3 58.3-16.3 58.8-15.83 59.3-15.35 59.35-14.7L59.35-14.7Q59.35-14.65 56.87-8.9 54.4-3.15 54.55-2.05L54.55-2.05Q56.7-2.7 62.22-7.3 67.75-11.9 67.75-15.55L67.75-15.55Q67.75-17.75 65.55-18.75L65.55-18.75Q65.2-18.9 65.2-19.2L65.2-19.2Q65.2-19.65 65.75-19.65ZM80.29-10.6L80.29-10.6Q80.29-8.85 76.94-4.75L76.94-4.75Q72.99 0.1 70.19 0.1L70.19 0.1 69.39 0.1Q68.09 0.1 67.34-1.25L67.34-1.25Q66.74-2.2 66.74-3.35L66.74-3.35Q66.74-6.35 71.12-11.78 75.49-17.2 78.19-17.2L78.19-17.2Q80.74-17.2 80.74-14.5L80.74-14.5Q80.74-13.8 80.49-12.7L80.49-12.7Q80.54-12.55 81.44-12.55 82.34-12.55 84.19-13.5L84.19-13.5Q84.14-12.65 80.24-11.05L80.24-11.05Q80.29-10.85 80.29-10.6ZM77.04-13.2L77.04-13.2Q75.34-13.2 72.22-9.2 69.09-5.2 69.09-3.3 69.09-1.4 70.29-1.4L70.29-1.4Q72.44-1.4 75.74-5.3 79.04-9.2 79.04-10.9L79.04-10.9Q78.24-11.35 77.04-13.2ZM91.49 0.25L91.49 0.25Q87.74 0.25 87.74-3.9L87.74-3.9Q87.74-6 88.84-8.5 89.94-11 91.24-12.7L91.24-12.7Q90.99-12.65 90.59-12.65L90.59-12.65Q89.39-12.65 88.59-14.35L88.59-14.35 84.89-9.55Q81.79-5.7 81.29-5.7L81.29-5.7Q81.04-5.7 81.04-5.9L81.04-5.9Q81.04-6.4 81.89-7.35L81.89-7.35Q86.24-12.4 88.04-15.9L88.04-15.9Q89.19-20.25 90.94-20.25L90.94-20.25Q92.09-20.25 92.09-19.25 92.09-18.25 90.84-16.7L90.84-16.7 89.64-15.1Q89.64-14.05 91.19-14.05L91.19-14.05Q92.09-14.05 93.19-14.7L93.19-14.7 94.49-15.5Q94.59-15.55 94.99-15.55 95.39-15.55 95.84-15.05 96.29-14.55 96.14-14.15L96.14-14.15 92.69-9.8Q89.49-5.7 89.49-3.33 89.49-0.95 91.69-0.95L91.69-0.95Q93.99-0.95 97.34-3.4L97.34-3.4Q99.34-4.85 100.99-6.65L100.99-6.65Q102.54-8.45 102.69-8.45L102.69-8.45Q103.04-8.45 103.04-8.08 103.04-7.7 102.59-7.2L102.59-7.2 100.99-5.4Q99.64-4 97.99-2.7L97.99-2.7Q94.04 0.25 91.49 0.25ZM111.84-20.4Q112.59-20.4 113.26-19.93 113.94-19.45 113.94-18.8 113.94-18.15 113.31-17.68 112.69-17.2 111.94-17.2 111.19-17.2 110.56-17.75 109.94-18.3 109.94-19L109.94-19Q109.94-20.4 111.84-20.4L111.84-20.4ZM102.79 0.55L102.79 0.55Q100.24 0.55 100.24-2.75L100.24-2.75Q100.24-5.45 103.19-10.23 106.14-15 107.94-15.05L107.94-15.05Q108.44-15.05 109.06-14.65 109.69-14.25 109.69-13.85L109.69-13.85Q109.44-13.5 109.09-13.08 108.74-12.65 108.34-12.15 107.94-11.65 107.24-10.73 106.54-9.8 105.89-8.95L105.89-8.95Q102.14-4.1 102.14-2.27 102.14-0.45 103.39-0.45L103.39-0.45Q104.44-0.45 106.24-1.6L106.24-1.6Q110.44-4.2 112.89-7.3L112.89-7.3Q113.79-8.45 114.11-8.45 114.44-8.45 114.44-8.05 114.44-7.65 113.29-6.45 112.14-5.25 111.46-4.55 110.79-3.85 110.54-3.63 110.29-3.4 109.61-2.78 108.94-2.15 108.59-1.9 108.24-1.65 107.59-1.15 106.94-0.65 106.44-0.43 105.94-0.2 105.29 0.1L105.29 0.1Q104.24 0.55 102.79 0.55ZM125.34-16.1L125.34-16.1 132.54-16.2Q132.69-16.1 132.69-16.05L132.69-16.05Q132.69-15.6 126.46-14.8 120.24-14 119.74-13.85L119.74-13.85Q118.79-13 116.24-8.78 113.69-4.55 113.69-2.6L113.69-2.6Q113.69-0.75 116.24-0.75L116.24-0.75Q117.44-0.75 119.39-1.5 121.34-2.25 122.39-2.9L122.39-2.9Q125.19-4.65 128.39-8.05L128.39-8.05Q129.09-8.75 129.34-8.75L129.34-8.75Q129.49-8.75 129.49-8.45 129.49-8.15 128.74-7.25L128.74-7.25Q126.14-4.05 122.89-2.1L122.89-2.1Q118.99 0.3 115.44 0.3L115.44 0.3Q113.89 0.3 112.91-0.38 111.94-1.05 111.94-3.1 111.94-5.15 113.74-8.72 115.54-12.3 116.49-14.05L116.49-14.05Q115.79-13.9 115.29-13.9L115.29-13.9Q113.84-13.9 113.84-15.05L113.84-15.05Q113.84-15.9 115.04-16.25L115.04-16.25Q115.19-16.25 115.49-16.3L115.49-16.3 118.39-16.3Q119.29-17.45 120.44-18.95L120.44-18.95Q121.84-20.75 122.34-20.75 122.84-20.75 123.59-20.35 124.34-19.95 124.34-19.4 124.34-18.85 121.94-16.15L121.94-16.15Q123.24-16.1 125.34-16.1ZM129.68 0.65L129.68 0.65Q129.13 0.65 128.68 0.5L128.68 0.5Q125.48-0.4 125.48-3.1L125.48-3.1Q125.48-6.6 129.88-11.2 134.28-15.8 137.78-15.8L137.78-15.8Q138.93-15.8 139.66-15.18 140.38-14.55 140.38-13.65L140.38-13.65Q140.38-10.85 136.16-8.3 131.93-5.75 129.28-5.75L129.28-5.75Q128.88-5.75 128.58-5.85L128.58-5.85Q127.83-4.5 127.83-3L127.83-3Q127.83-0.4 130.31-0.4 132.78-0.4 136.73-3.75L136.73-3.75Q139.78-6.2 141.93-8.95L141.93-8.95Q142.38-9.55 142.71-9.55 143.03-9.55 143.03-9.25 143.03-8.95 142.63-8.4L142.63-8.4Q139.93-4.85 136.13-2.1 132.33 0.65 129.68 0.65ZM139.13-13.75L139.13-13.75Q139.13-14.35 137.86-14.35 136.58-14.35 134.23-12.4L134.23-12.4Q131.08-9.8 129.33-6.95L129.33-6.95Q129.63-6.85 129.98-6.85L129.98-6.85Q131.88-6.85 135.06-8.88 138.23-10.9 139.03-13.3L139.03-13.3Q139.13-13.55 139.13-13.75ZM171.03-2.05L171.03-2.05Q169.83-0.2 169.83 0.35 169.83 0.9 170.28 1.15L170.28 1.15Q170.28 1.2 169.38 1.9L169.38 1.9Q168.58 2.3 167.58 2.3 166.58 2.3 166.13 2.08 165.68 1.85 165.83 1.35L165.83 1.35Q166.53-0.9 171.08-7.68 175.63-14.45 177.18-17.25L177.18-17.25Q180.53-23.3 180.53-26.9L180.53-26.9Q180.53-28.4 180.03-29.45L180.03-29.45Q179.03-31.5 175.28-31.5L175.28-31.5Q169.43-31.5 163.18-26.45L163.18-26.45Q158.18-22.4 155.53-17.88 152.88-13.35 152.88-9.8L152.88-9.8Q152.88-4.7 157.38-4.6L157.38-4.6Q157.58-4.6 157.78-4.6L157.78-4.6Q163.53-4.6 166.68-8.75L166.68-8.75Q167.88-10.4 167.88-11.55 167.88-12.7 167.38-13L167.38-13Q167.33-13.05 167.33-13.2 167.33-13.35 167.63-13.35L167.63-13.35Q168.93-13.35 168.93-11.65L168.93-11.65Q168.93-10.6 167.9-8.8 166.88-7 164.28-5.4 161.68-3.8 158.23-3.8 154.78-3.8 152.73-5.95 150.68-8.1 150.68-11.6L150.68-11.6Q150.68-19.5 160.98-27.75L160.98-27.75Q163.63-29.85 167.95-31.2 172.28-32.55 176.23-32.55 180.18-32.55 181.6-31.18 183.03-29.8 183.03-27.5L183.03-27.5Q183.03-24 180.18-18.05L180.18-18.05Q179.28-16.2 176.13-11.3L176.13-11.3 179.98-16.2Q182.78-19.85 189.68-26.6L189.68-26.6Q191.18-28.05 193-29.03 194.83-30 196.13-30L196.13-30Q197.93-30 197.93-28.1L197.93-28.1Q197.93-26.45 196.35-23.13 194.78-19.8 193.18-16.82 191.58-13.85 191.23-12.93 190.88-12 190.73-11.45 190.58-10.9 190.53-10.85L190.53-10.85Q190.68-11.1 193.83-14.68 196.98-18.25 203.13-23.6L203.13-23.6 211.13-30.2Q212.08-31 212.83-31 213.58-31 214.05-29.75 214.53-28.5 214.53-27.73 214.53-26.95 212.13-24.5L212.13-24.5Q205.88-18.1 201.53-10.5 197.18-2.9 197.18 0.35L197.18 0.35Q197.18 1.2 197.48 1.53 197.78 1.85 198.43 1.73 199.08 1.6 201.15 0.7 203.23-0.2 203.88-0.35L203.88-0.35Q204.13-0.25 204.13-0.1L204.13-0.1Q204.13 0.65 201.5 2 198.88 3.35 197.55 3.35 196.23 3.35 195.93 2.9L195.93 2.9Q195.03 1.6 195.03-0.25L195.03-0.25Q195.03-4.55 199.63-12.6L199.63-12.6Q202.58-17.65 208.73-26.2L208.73-26.2Q203.93-22.3 195.73-14.25 187.53-6.2 184.98-1.65L184.98-1.65Q183.68 0.7 181.83 0.7L181.83 0.7Q180.98 0.7 180.98 0.1L180.98 0.1Q180.98-0.1 182-1.7 183.03-3.3 186.53-9.2L186.53-9.2Q195.13-24.15 195.13-27.2L195.13-27.2Q195.13-28 194.58-28L194.58-28Q193.78-28 192.23-26.65L192.23-26.65Q186.68-22 180.43-14.5 174.18-7 171.03-2.05ZM219.73-10.6L219.73-10.6Q219.73-8.85 216.38-4.75L216.38-4.75Q212.43 0.1 209.63 0.1L209.63 0.1 208.83 0.1Q207.53 0.1 206.78-1.25L206.78-1.25Q206.18-2.2 206.18-3.35L206.18-3.35Q206.18-6.35 210.55-11.78 214.93-17.2 217.63-17.2L217.63-17.2Q220.18-17.2 220.18-14.5L220.18-14.5Q220.18-13.8 219.93-12.7L219.93-12.7Q219.98-12.55 220.88-12.55 221.78-12.55 223.63-13.5L223.63-13.5Q223.58-12.65 219.68-11.05L219.68-11.05Q219.73-10.85 219.73-10.6ZM216.48-13.2L216.48-13.2Q214.78-13.2 211.65-9.2 208.53-5.2 208.53-3.3 208.53-1.4 209.73-1.4L209.73-1.4Q211.88-1.4 215.18-5.3 218.48-9.2 218.48-10.9L218.48-10.9Q217.68-11.35 216.48-13.2ZM234.27-19.65L234.27-19.65Q235.77-19.65 236.82-18.65 237.87-17.65 237.87-15.85L237.87-15.85Q237.87-11.9 231.32-5.95L231.32-5.95Q225.77-0.95 222.37 0.15L222.37 0.15Q221.82 0.15 220.92-0.45 220.02-1.05 220.02-1.55L220.02-1.55Q220.02-2.65 222.42-9 224.82-15.35 225.72-16.1L225.72-16.1Q225.92-16.3 226.37-16.3 226.82-16.3 227.32-15.83 227.82-15.35 227.87-14.7L227.87-14.7Q227.87-14.65 225.4-8.9 222.92-3.15 223.07-2.05L223.07-2.05Q225.22-2.7 230.75-7.3 236.27-11.9 236.27-15.55L236.27-15.55Q236.27-17.75 234.07-18.75L234.07-18.75Q233.72-18.9 233.72-19.2L233.72-19.2Q233.72-19.65 234.27-19.65ZM246.62-20.4Q247.37-20.4 248.05-19.93 248.72-19.45 248.72-18.8 248.72-18.15 248.1-17.68 247.47-17.2 246.72-17.2 245.97-17.2 245.35-17.75 244.72-18.3 244.72-19L244.72-19Q244.72-20.4 246.62-20.4L246.62-20.4ZM237.57 0.55L237.57 0.55Q235.02 0.55 235.02-2.75L235.02-2.75Q235.02-5.45 237.97-10.23 240.92-15 242.72-15.05L242.72-15.05Q243.22-15.05 243.85-14.65 244.47-14.25 244.47-13.85L244.47-13.85Q244.22-13.5 243.87-13.08 243.52-12.65 243.12-12.15 242.72-11.65 242.02-10.73 241.32-9.8 240.67-8.95L240.67-8.95Q236.92-4.1 236.92-2.27 236.92-0.45 238.17-0.45L238.17-0.45Q239.22-0.45 241.02-1.6L241.02-1.6Q245.22-4.2 247.67-7.3L247.67-7.3Q248.57-8.45 248.9-8.45 249.22-8.45 249.22-8.05 249.22-7.65 248.07-6.45 246.92-5.25 246.25-4.55 245.57-3.85 245.32-3.63 245.07-3.4 244.4-2.78 243.72-2.15 243.37-1.9 243.02-1.65 242.37-1.15 241.72-0.65 241.22-0.43 240.72-0.2 240.07 0.1L240.07 0.1Q239.02 0.55 237.57 0.55ZM249.62 0.65L249.62 0.65Q249.07 0.65 248.62 0.5L248.62 0.5Q245.42-0.4 245.42-3.1L245.42-3.1Q245.42-6.6 249.82-11.2 254.22-15.8 257.72-15.8L257.72-15.8Q258.87-15.8 259.59-15.18 260.32-14.55 260.32-13.65L260.32-13.65Q260.32-10.85 256.09-8.3 251.87-5.75 249.22-5.75L249.22-5.75Q248.82-5.75 248.52-5.85L248.52-5.85Q247.77-4.5 247.77-3L247.77-3Q247.77-0.4 250.24-0.4 252.72-0.4 256.67-3.75L256.67-3.75Q259.72-6.2 261.87-8.95L261.87-8.95Q262.32-9.55 262.64-9.55 262.97-9.55 262.97-9.25 262.97-8.95 262.57-8.4L262.57-8.4Q259.87-4.85 256.07-2.1 252.27 0.65 249.62 0.65ZM259.07-13.75L259.07-13.75Q259.07-14.35 257.79-14.35 256.52-14.35 254.17-12.4L254.17-12.4Q251.02-9.8 249.27-6.95L249.27-6.95Q249.57-6.85 249.92-6.85L249.92-6.85Q251.82-6.85 254.99-8.88 258.17-10.9 258.97-13.3L258.97-13.3Q259.07-13.55 259.07-13.75Z"
      opacity="1" transform="matrix(1,0,0,1,0,0)" fill="#aaadae" data-fill-palette-color="primary" />
  </g>

  <g transform="translate(200 5), scale(1)" height="75" width="75">

    <rect x="34.571" y="16.321" fill="#0db0b9" width="5.716" height="5.716"
      data-fill-palette-color="accent" />
    <rect x="34.571" y="28.368" fill="#0db0b9" width="5.716" height="5.716"
      data-fill-palette-color="accent" />
    <rect x="34.571" y="40.416" fill="#0db0b9" width="5.716" height="5.716"
      data-fill-palette-color="accent" />
    <rect x="34.571" y="52.464" fill="#0db0b9" width="5.716" height="5.716"
      data-fill-palette-color="accent" />
    <rect x="80.349" y="16.321" fill="#0db0b9" width="5.716" height="5.716"
      data-fill-palette-color="accent" />
    <rect x="80.349" y="28.368" fill="#0db0b9" width="5.716" height="5.716"
      data-fill-palette-color="accent" />
    <rect x="80.349" y="40.416" fill="#0db0b9" width="5.716" height="5.716"
      data-fill-palette-color="accent" />
    <rect x="80.349" y="52.464" fill="#0db0b9" width="5.716" height="5.716"
      data-fill-palette-color="accent" />

    <path fill="#0db0b9"
      d="M52.324 50.356c-0.188 0-0.375-0.048-0.546-0.142-0.354-0.199-0.572-0.572-0.572-0.975V26.271c0-0.404 0.218-0.777 0.572-0.975 0.354-0.194 0.786-0.19 1.13 0.024l18.704 11.483c0.332 0.203 0.532 0.563 0.532 0.951 0 0.389-0.201 0.749-0.532 0.951L52.909 50.19C52.73 50.301 52.527 50.356 52.324 50.356zM53.442 28.268v18.974l15.45-9.488L53.442 28.268z"
      data-fill-palette-color="accent" />

    <path fill="#0db0b9"
      d="M81.978 8.301c4.025 0 7.3 3.275 7.3 7.3V59.3c0 4.025-3.275 7.3-7.3 7.3H38.279c-4.025 0-7.3-3.275-7.3-7.3V15.601c0-4.025 3.275-7.3 7.3-7.3H81.978M81.978 6.066H38.279c-5.266 0-9.535 4.269-9.535 9.535V59.3c0 5.266 4.269 9.535 9.535 9.535h43.699c5.266 0 9.535-4.269 9.535-9.535V15.601C91.512 10.335 87.243 6.066 81.978 6.066L81.978 6.066z"
      data-fill-palette-color="accent" />

    <path fill="#0db0b9"
      d="M74.63 71.069h-2.299l0.225 0.924c0.478 1.957 0.164 3.985-0.884 5.706-1.048 1.722-2.704 2.931-4.661 3.409l-38.573 9.386c-1.953 0.474-3.98 0.164-5.706-0.886-1.722-1.047-2.931-2.704-3.409-4.661l-9.383-38.57c-0.478-1.957-0.161-3.985 0.886-5.706 1.047-1.722 2.704-2.931 4.661-3.409l11.023-2.682V32.28l-11.551 2.809c-2.538 0.618-4.683 2.187-6.043 4.419-1.357 2.23-1.765 4.858-1.148 7.396l9.386 38.57c0.615 2.538 2.184 4.683 4.417 6.043 1.552 0.943 3.293 1.429 5.065 1.429 0.775 0 1.558-0.094 2.331-0.284l38.573-9.386c2.538-0.615 4.683-2.184 6.04-4.417 1.36-2.23 1.765-4.858 1.148-7.396L74.63 71.069z"
      data-fill-palette-color="accent" />
  </g>
</svg>